<?xml version="1.0" encoding="utf-8"?>
<!-- Generator: Adobe Illustrator 27.5.0, SVG Export Plug-In . SVG Version: 6.00 Build 0)  -->
<svg version="1.1" id="Layer_1" xmlns:xodm="http://www.corel.com/coreldraw/odm/2003"
	 xmlns="http://www.w3.org/2000/svg" xmlns:xlink="http://www.w3.org/1999/xlink" x="0px" y="0px" viewBox="0 0 4000 4000"
	 style="enable-background:new 0 0 4000 4000;" xml:space="preserve">
<g id="Layer_x5F_1">
	<g id="_2818957115488">
		<rect style="fill:#FFFFFF;" width="4000" height="4000"/>
		<g>
			<g>
				<path style="fill:#1B84F8;" d="M2324.95,1011.55c-30.97-10.85-65.11-23.95-96.44-35.95c-57.59-22.04-49.07-19.82-107.44-4.58
					l-2.03,20.94c-9.77,25.87-10.73,34.71-31.94,49.54c-18.18,12.71-41.31,20.71-68.53,18.26c-92.96-8.5-108.8-131.58-17.87-160.64
					c47.38-15.14,64.61,12.99,86.75,12.75c19.75-0.21,48.46-18.72,81.71-17.99c36.43,0.79,484.33,176.53,523.88,192.29
					c56.28,22.44,98.86,30.85,100.9,104.24c1.55,55.5,1.2,118.66-0.14,176.4c-48.43,9.2-85.05,51.75-85.05,102.86
					c0,57.83,46.88,104.71,104.71,104.71s104.72-46.88,104.72-104.71c0-51.25-36.82-93.89-85.44-102.94l-0.01-183.38l105.21-47.82
					c-1.19-0.64-6.44-3.41-7.7-4.02l-42.66-16.87c-19.76-7.62-38.5-15.49-58.34-23.14l-352.91-137.46
					c-78.03-30.45-156.3-60.96-236.34-90.33c-39.62-14.54-78.69-30.07-118.31-44.94c-19.58-7.35-40.39-14.39-59.99-21.73
					c-27.46-10.29-32-18.79-59.76-7.97c-154.8,60.32-317.38,118.81-471.86,178.34c-36.33,14-443.17,168.47-468.01,186.01
					c0.79,0.51,2.08,0.2,2.48,1.33c0.39,1.12,1.92,1.04,2.46,1.3l399.38,150.49c137.44,52.14,271.2,98.21,408.74,148.2
					c47.71,17.35,32.58,14.77,100.13-9.18l714.78-260.45l35.83-17.07c-13.45-12.2-170.16-69.41-198.34-79.41
					C2459.98,1064.66,2392.22,1033.59,2324.95,1011.55L2324.95,1011.55z"/>
				<path style="fill:#1B84F8;" d="M2480.42,2609.15c-8.12-19.68-38.62-59.18-51.51-77.11l-107.89,58.03
					c-259.49,121.06-549.53,72.98-769.84-105.68c-14.77-11.98-28.5-27.1-41.77-39.82c-36.31-34.82-83.79-97.77-109.98-142.51
					c-71.17-121.55-104.17-256.8-94.4-406c8.88-135.42,54.47-266.74,133.84-366.32c22.84-28.65,20.41-12.05,20.43-60.65
					c0.01-22.54,7.05-64.59-3.05-81.39c-19.35-2.89-27.66,15.45-52.03,40.5c-35.64,36.62-91.98,127.31-112.03,170.1
					c-113.73,242.61-108.82,520.31,30.36,750.96c126.87,210.25,309.02,338.65,556.57,387.1c162.27,31.76,333.01,4.4,480.81-59.12
					C2390.55,2664.08,2461.71,2627.83,2480.42,2609.15L2480.42,2609.15z"/>
				<path style="fill:#1B84F8;" d="M1882.05,2492.74c-43.03-55.63-82.71-131.82-115.01-209.87c-34.27-82.81-51-168.97-62.41-267.51
					l-200.55-1.35c13.6,118.81,73.81,229.66,132.71,295.76c48.04,53.91,107.96,112.9,174.88,148.13
					C1830.09,2467.61,1867.63,2489.67,1882.05,2492.74L1882.05,2492.74z"/>
				<path style="fill:#1B84F8;" d="M1986.48,2494.08l0.83-479.41l-195.95-0.44c10.02,132.57,58.86,272.79,123,382.13
					C1928.62,2420.68,1970.48,2484.18,1986.48,2494.08z"/>
				<path style="fill:#1B84F8;" d="M2071.04,2491.59l67.24-95.34c62.56-99.78,117.36-261.79,123.65-382.14l-192.95,0.01
					C2071.53,2097.05,2062.84,2450.24,2071.04,2491.59z"/>
				<path style="fill:#1B84F8;" d="M1500.13,1938.39l203.92-0.04c1.19-143.88,23.59-151.32,36.05-244.17
					c-66.91-13.56-147.87-48.92-166.45-52.51c-6.18,20.37-19.61,39.53-28.56,60.97c-9.09,21.76-16.07,45.45-23.19,69.47
					C1506.42,1824.32,1499.61,1881.09,1500.13,1938.39L1500.13,1938.39z"/>
				<path style="fill:#1B84F8;" d="M1909.33,1551.94l-362.93-131.98c-4.41,104.14-10.24,113.88,55.35,145.01
					c94.53,44.87,221.55,69.8,327.54,76.9c70.32,4.71,136.25-3.31,201.64-1.08c80.28-7.78,275.03-49.88,343.6-96.8
					c19.9-13.63,26.6-11.56,27-43.73c-30.51,8.8-162.56,69.43-183.73,57.85c-38.71-31.8,59.83-55.14,86.71-65.51
					c108.86-41.95,97.84-24.65,97.8-71.32c-30.71,7.55-137.73,49.42-177.95,65.34c-28.47,11.26-49.16,17.54-43.59-22.86
					c21.28-14.81,193.57-79.64,222.45-87.3l-0.69-29.49l-439.18,153.61C2028.85,1512.7,1938.97,1550.52,1909.33,1551.94
					L1909.33,1551.94z"/>
				<path style="fill:#1B84F8;" d="M1790.18,1937.43l196.42,1.05c0.94-40.3,5.79-185.25-1.47-214.41l-160.46-13.23
					C1803.01,1790.4,1792.18,1848.16,1790.18,1937.43L1790.18,1937.43z"/>
				<path style="fill:#1B84F8;" d="M2070.49,1724.51l-1.28,213.03l195.19,1.2c-1.7-80.33-12.19-160.62-37.98-230.09L2070.49,1724.51
					z"/>
				<path style="fill:#1B84F8;" d="M2314.09,2528.55c74.98-20.95,139.89-79.25,191.76-128.72c23.09-22.01,79.72-103.69,95.91-134.14
					c74.91-140.91,101.62-296.58,73.57-460.32c-13.34-77.85-62.77-215.2-104.24-264.64c-17.69,35.57-23.62,18.99-6.15,56.46
					c33.84,72.55,53.53,104.34,71.26,196.36c41.05,213.13-11.28,396.49-136.09,559.66c-12.19,15.94-24.47,32.22-41.27,47.86
					c-31.94,29.7-45.16,50.6-92.01,86.28l-38.03,28.66c-0.29,0.21-6.22,4.61-6.47,4.82c-0.65,0.53-1.5,1.26-2.11,1.79
					L2314.09,2528.55z"/>
				<path style="fill:#1B84F8;" d="M1748.98,2534.41c-339.88-210.21-454.76-594.06-255.19-950.21
					c-4.74-9.64-10.18-20.34-18.97-27.93c-44.75,52.06-91.51,188.33-105.63,264.15c-44.35,238.15,59.01,519.23,257.39,651.68
					C1653.28,2489.93,1713.37,2527.72,1748.98,2534.41L1748.98,2534.41z"/>
				<path style="fill:#1B84F8;" d="M2374.76,2013.33l-26.22,1.5c-6.28,93.52-27.92,179.24-60.82,263.49
					c-9.03,23.11-26.92,56.26-32.5,76.92l-64.38,104.66c-14.84,21.76-18.59,18.44-25.27,33.31
					c66.14-19.51,143.47-81.82,192.34-126.11c88.36-80.06,174.31-236.38,184.35-352.99L2374.76,2013.33L2374.76,2013.33z"/>
				<path style="fill:#1B84F8;" d="M2352.53,1933.3c9.63,9.34,12.55,4.69,43.25,4.6l148.49,1.46
					c12.1-76.08-34.55-251.19-74.21-302.39c-19.19,3.39-55.79,18.66-77.23,26.05c-23.82,8.21-53.25,18.68-80.19,23.27l9.02,29.49
					c0.5,23.63,15.67,74.56,19.9,104.94C2345.49,1849.02,2347.15,1912.7,2352.53,1933.3L2352.53,1933.3z"/>
				<path style="fill:#1B84F8;" d="M2439.49,1335.42c33.64,0.19,250.66-87.16,289.68-104.6l-0.4-23.63l-222.37,86.83
					C2483.17,1302.56,2442.46,1307.87,2439.49,1335.42z"/>
			</g>
			<path style="fill:#1B84F8;" d="M874.27,2968.54v73.14h98.21v46.39h-98.21v77.32h110.75v47.64H815.75v-292.14h169.27v47.65
				L874.27,2968.54L874.27,2968.54z M1140.08,2921.31c30.65,0,57.61,5.99,80.87,17.97c23.27,11.98,41.24,29.05,53.92,51.2
				c12.67,22.15,19.01,47.85,19.01,77.11s-6.34,54.82-19.01,76.69c-12.68,21.88-30.65,38.8-53.92,50.78
				c-23.26,11.98-50.22,17.97-80.87,17.97H1038.1v-291.72H1140.08z M1137.99,3163.3c30.65,0,54.33-8.36,71.05-25.08
				c16.72-16.72,25.08-40.26,25.08-70.63c0-30.37-8.36-54.12-25.08-71.26s-40.4-25.7-71.05-25.7h-41.38v192.67H1137.99z
				 M1395.44,2921.31v180.55c0,19.78,5.16,34.9,15.47,45.35c10.31,10.45,24.8,15.67,43.46,15.67c18.95,0,33.58-5.22,43.89-15.67
				s15.46-25.57,15.46-45.35v-180.55h58.93v180.13c0,24.8-5.36,45.77-16.09,62.9c-10.73,17.14-25.08,30.03-43.05,38.66
				c-17.97,8.64-37.96,12.96-59.97,12.96c-21.74,0-41.45-4.32-59.14-12.96c-17.69-8.63-31.7-21.52-42.01-38.66
				c-10.3-17.13-15.46-38.1-15.46-62.9v-180.13H1395.44z M1614.86,3066.75c0-28.69,6.48-54.4,19.44-77.11
				c12.95-22.71,30.65-40.4,53.08-53.08c22.43-12.67,47.57-19.01,75.44-19.01c32.6,0,61.16,8.36,85.68,25.07
				c24.52,16.72,41.65,39.85,51.4,69.38h-67.29c-6.68-13.93-16.09-24.38-28.21-31.34c-12.12-6.97-26.12-10.45-42-10.45
				c-17,0-32.11,3.97-45.35,11.91c-13.23,7.94-23.54,19.16-30.93,33.64c-7.38,14.49-11.07,31.49-11.07,50.99
				c0,19.23,3.69,36.16,11.07,50.78c7.39,14.63,17.7,25.92,30.93,33.86c13.24,7.94,28.35,11.91,45.35,11.91
				c15.88,0,29.88-3.55,42-10.66c12.12-7.1,21.53-17.62,28.21-31.55h67.29c-9.75,29.81-26.82,53.01-51.2,69.58
				c-24.38,16.58-53,24.87-85.88,24.87c-27.87,0-53.01-6.34-75.44-19.01c-22.43-12.68-40.13-30.31-53.08-52.87
				C1621.34,3121.09,1614.86,3095.45,1614.86,3066.75L1614.86,3066.75z M2128.93,3157.45h-116.18l-19.23,55.58h-61.44l104.91-292.14
				h68.12l104.91,292.14h-61.86L2128.93,3157.45L2128.93,3157.45z M2113.05,3110.64l-42.21-122.04l-42.21,122.04H2113.05z
				 M2447.83,2921.31v47.23h-77.74v244.49h-58.51v-244.49h-77.74v-47.23H2447.83z M2548.97,2921.31v291.72h-58.51v-291.72H2548.97z
				 M2742.06,3215.96c-27.31,0-52.38-6.41-75.23-19.23c-22.85-12.81-40.96-30.57-54.33-53.28c-13.38-22.71-20.06-48.41-20.06-77.11
				c0-28.42,6.68-53.99,20.06-76.7c13.37-22.71,31.48-40.47,54.33-53.28c22.85-12.82,47.92-19.23,75.23-19.23
				c27.58,0,52.73,6.41,75.44,19.23c22.71,12.81,40.68,30.57,53.91,53.28c13.24,22.71,19.86,48.28,19.86,76.7
				c0,28.7-6.62,54.4-19.86,77.11c-13.23,22.71-31.27,40.47-54.12,53.28C2794.44,3209.55,2769.37,3215.96,2742.06,3215.96
				L2742.06,3215.96z M2742.06,3163.72c17.55,0,33.02-3.97,46.39-11.91c13.38-7.95,23.82-19.3,31.35-34.07
				c7.52-14.76,11.28-31.9,11.28-51.4c0-19.51-3.76-36.58-11.28-51.2c-7.53-14.63-17.97-25.85-31.35-33.65
				c-13.37-7.8-28.84-11.7-46.39-11.7c-17.55,0-33.09,3.9-46.6,11.7s-24.03,19.02-31.56,33.65c-7.52,14.62-11.28,31.69-11.28,51.2
				c0,19.5,3.76,36.64,11.28,51.4c7.53,14.77,18.05,26.12,31.56,34.07C2708.97,3159.75,2724.51,3163.72,2742.06,3163.72z
				 M3184.25,3213.03h-58.52l-132.48-200.19v200.19h-58.52v-292.14h58.52l132.48,200.61v-200.61h58.52V3213.03z"/>
		</g>
	</g>
</g>
</svg>
